<?xml version="1.0" encoding="UTF-8"?>
<svg id="Capa_2" data-name="Capa 2" xmlns="http://www.w3.org/2000/svg" viewBox="0 0 140.93 38.91">
  <g id="Capa_1-2" data-name="Capa 1">
    <g>
      <g>
        <path d="M70.46,6.87c-.09.28.07.26.21.17.29-.19.54-.62.68-.92.33-.72.3-1.54.07-2.28-.55-1.75-1.49-2.17-1.01-3.57.1-.29-.05-.31-.13-.2-.11.16-1.42,1.78-.79,3.45.6,1.6,1.5,1.73.97,3.36Z" fill="#fff"/>
        <path d="M68.68,7.36c.06.29.19.19.27.04.15-.31.15-.81.12-1.14-.07-.79-.51-1.48-1.08-2.01-1.35-1.24-2.37-1.13-2.66-2.59-.06-.31-.2-.24-.21-.11-.02.2-.34,2.25,1.04,3.38,1.32,1.08,2.17.75,2.52,2.43Z" fill="#fff"/>
        <path d="M67.37,8.66c.2.22.26.07.25-.1-.02-.35-.27-.77-.46-1.05-.46-.65-1.18-1.03-1.94-1.2-1.79-.4-2.62.2-3.59-.92-.2-.23-.29-.11-.24.01.08.18.83,2.12,2.59,2.41,1.68.28,2.25-.44,3.39.84Z" fill="#fff"/>
        <path d="M66.9,10.45c.28.09.26-.07.17-.21-.19-.29-.62-.54-.92-.68-.72-.33-1.54-.3-2.28-.07-1.75.55-2.17,1.49-3.57,1.01-.29-.1-.31.05-.2.13.16.11,1.78,1.42,3.45.79,1.6-.6,1.73-1.5,3.36-.97Z" fill="#fff"/>
        <path d="M67.38,12.23c.29-.06.19-.19.04-.27-.31-.15-.81-.15-1.14-.12-.79.07-1.48.51-2.01,1.08-1.24,1.35-1.13,2.37-2.59,2.66-.31.06-.24.2-.11.21.2.02,2.25.34,3.38-1.04,1.08-1.32.75-2.17,2.43-2.52Z" fill="#fff"/>
        <path d="M68.69,13.53c.22-.2.07-.26-.1-.25-.35.02-.77.27-1.05.46-.65.46-1.03,1.18-1.2,1.94-.4,1.79.2,2.62-.92,3.59-.23.2-.11.29.01.24.18-.08,2.12-.83,2.41-2.59.28-1.68-.44-2.25.84-3.39Z" fill="#fff"/>
        <path d="M70.47,14c.09-.28-.07-.26-.21-.17-.29.19-.54.62-.68.92-.33.72-.3,1.54-.07,2.28.55,1.75,1.49,2.17,1.01,3.57-.1.29.05.31.13.2.11-.16,1.42-1.78.79-3.45-.6-1.6-1.5-1.73-.97-3.36Z" fill="#fff"/>
        <path d="M72.26,13.52c-.06-.29-.19-.19-.27-.04-.15.31-.15.81-.12,1.14.07.79.51,1.48,1.08,2.01,1.35,1.24,2.37,1.13,2.66,2.59.06.31.2.24.21.11.02-.2.34-2.25-1.04-3.38-1.32-1.08-2.17-.75-2.52-2.43Z" fill="#fff"/>
        <path d="M73.56,12.21c-.2-.22-.26-.07-.25.1.02.35.27.77.46,1.05.46.65,1.18,1.03,1.94,1.2,1.79.4,2.62-.2,3.59.92.2.23.29.11.24-.01-.08-.18-.83-2.12-2.59-2.41-1.68-.28-2.25.44-3.39-.84Z" fill="#fff"/>
        <path d="M74.03,10.43c-.28-.09-.26.07-.17.21.19.29.62.54.92.68.72.33,1.54.3,2.28.07,1.75-.55,2.17-1.49,3.57-1.01.29.1.31-.05.2-.13-.16-.11-1.78-1.42-3.45-.79-1.6.6-1.73,1.5-3.36.97Z" fill="#fff"/>
        <path d="M73.55,8.65c-.29.06-.19.19-.04.27.31.15.81.15,1.14.12.79-.07,1.48-.51,2.01-1.08,1.24-1.35,1.13-2.37,2.59-2.66.31-.06.24-.2.11-.21-.2-.02-2.25-.34-3.38,1.04-1.08,1.32-.75,2.17-2.43,2.52Z" fill="#fff"/>
        <path d="M72.24,7.35c-.22.2-.07.26.1.25.35-.02.77-.27,1.05-.46.65-.46,1.03-1.18,1.2-1.94.4-1.79-.2-2.62.92-3.59.23-.2.11-.29-.01-.24-.18.08-2.12.83-2.41,2.59-.28,1.68.44,2.25-.84,3.39Z" fill="#fff"/>
      </g>
      <g>
        <path d="M6.5,28.11c0,1.06-.41,1.89-1.22,2.49-.81.6-1.88.9-3.21.9-.29,0-.53-.01-.73-.03v4.03H0v-10.35c.62-.09,1.34-.14,2.16-.14,2.89,0,4.34,1.03,4.34,3.09ZM4.29,30.17c.51-.5.76-1.2.76-2.1,0-.8-.24-1.42-.72-1.87-.48-.44-1.22-.67-2.22-.67-.2,0-.46.02-.76.05v5.3c.14.02.34.03.61.03,1.05,0,1.82-.25,2.33-.75Z" fill="#fff"/>
        <path d="M7.84,24.37h1.28v11.12h-1.28v-11.12Z" fill="#fff"/>
        <path d="M16.53,28.37c.49.52.73,1.33.73,2.42v4.71h-.83l-.37-1.33c-.25.53-.61.92-1.07,1.18-.47.26-1,.39-1.61.39-.73,0-1.36-.19-1.87-.58-.52-.39-.78-.96-.78-1.71,0-.85.33-1.5.98-1.94.65-.44,1.54-.66,2.67-.66.59,0,1.13.05,1.64.14v-.32c0-.78-.14-1.37-.42-1.78-.28-.41-.79-.62-1.52-.62-.87,0-1.67.3-2.41.91l-.34-.62c.37-.3.83-.54,1.37-.71.54-.17,1.07-.25,1.6-.25,1,0,1.75.26,2.24.78ZM15.35,34.26c.44-.48.66-1.17.66-2.08v-.66c-.53-.08-.94-.12-1.23-.12-.87,0-1.53.16-2,.49-.47.33-.7.8-.7,1.43,0,.51.15.91.46,1.21.3.3.7.45,1.2.45.64,0,1.18-.24,1.62-.72Z" fill="#fff"/>
        <path d="M25.89,27.8v6.85c0,2.84-1.27,4.25-3.81,4.25-.86,0-1.62-.2-2.3-.59l.35-.66c.33.19.67.33,1.03.43.36.1.7.14,1.01.14.89,0,1.52-.27,1.88-.81.37-.54.55-1.32.55-2.33v-1.15c-.2.52-.54.93-1.01,1.22-.47.3-.98.45-1.54.45-1.88,0-2.82-1.11-2.82-3.34v-4.47h1.28v4.08c0,.87.12,1.58.36,2.14.24.56.73.84,1.46.84.68,0,1.22-.3,1.63-.91.41-.61.62-1.43.62-2.48v-3.68h1.3Z" fill="#fff"/>
        <path d="M33.14,28.37c.49.52.73,1.33.73,2.42v4.71h-.83l-.37-1.33c-.25.53-.61.92-1.07,1.18-.47.26-1,.39-1.61.39-.73,0-1.36-.19-1.87-.58-.52-.39-.78-.96-.78-1.71,0-.85.33-1.5.98-1.94.65-.44,1.54-.66,2.67-.66.59,0,1.13.05,1.64.14v-.32c0-.78-.14-1.37-.42-1.78-.28-.41-.79-.62-1.52-.62-.87,0-1.67.3-2.41.91l-.34-.62c.37-.3.83-.54,1.37-.71.54-.17,1.07-.25,1.6-.25,1,0,1.75.26,2.24.78ZM31.97,34.26c.44-.48.66-1.17.66-2.08v-.66c-.53-.08-.94-.12-1.23-.12-.87,0-1.53.16-2,.49-.47.33-.7.8-.7,1.43,0,.51.15.91.46,1.21.3.3.7.45,1.2.45.64,0,1.18-.24,1.62-.72Z" fill="#fff"/>
        <path d="M48.57,25.13v10.36h-.71l-6.75-8.22v8.22h-.76v-10.36h.73l6.73,8.22v-8.22h.76Z" fill="#fff"/>
        <path d="M57.59,27.8v7.7h-.84l-.39-1.42c-.27.54-.65.95-1.13,1.23-.48.28-.99.42-1.52.42-.95,0-1.64-.3-2.09-.89-.45-.6-.68-1.41-.68-2.43v-4.61h1.28v4.17c0,.89.11,1.61.34,2.18.22.56.7.84,1.43.84s1.27-.31,1.68-.92c.41-.61.62-1.45.62-2.52v-3.75h1.3Z" fill="#fff"/>
        <path d="M66.11,31.55h-5.42c.02,1.01.26,1.85.72,2.5.46.65,1.13.98,2.03.98.42,0,.78-.05,1.11-.16.32-.11.64-.28.97-.51l.32.51c-.71.59-1.6.88-2.67.88-.87,0-1.59-.19-2.16-.56-.57-.37-1-.86-1.27-1.48-.28-.61-.41-1.3-.41-2.05s.15-1.41.46-2.03c.3-.62.74-1.11,1.3-1.49.56-.37,1.21-.56,1.94-.56,1.06,0,1.85.32,2.36.96.52.64.78,1.46.78,2.46,0,.19-.02.37-.05.54ZM61.37,28.93c-.41.55-.63,1.24-.68,2.08h4.05c.02-.11.03-.26.03-.44,0-.66-.14-1.24-.42-1.73-.28-.49-.75-.73-1.4-.73s-1.18.28-1.59.83Z" fill="#fff"/>
        <path d="M73.73,27.8c-.44,1.25-.96,2.61-1.55,4.07-.6,1.46-1.14,2.67-1.62,3.63h-.78l-3.09-7.7h1.4l2.41,6.28c.36-.79.74-1.81,1.15-3.06.41-1.25.71-2.33.93-3.22h1.15Z" fill="#fff"/>
        <path d="M80.01,28.37c.49.52.73,1.33.73,2.42v4.71h-.83l-.37-1.33c-.25.53-.61.92-1.07,1.18-.47.26-1,.39-1.61.39-.73,0-1.36-.19-1.87-.58-.52-.39-.78-.96-.78-1.71,0-.85.33-1.5.98-1.94.65-.44,1.54-.66,2.67-.66.59,0,1.13.05,1.64.14v-.32c0-.78-.14-1.37-.42-1.78-.28-.41-.79-.62-1.52-.62-.87,0-1.67.3-2.41.91l-.34-.62c.37-.3.83-.54,1.37-.71.54-.17,1.07-.25,1.6-.25,1,0,1.75.26,2.24.78ZM78.84,34.26c.44-.48.66-1.17.66-2.08v-.66c-.53-.08-.94-.12-1.23-.12-.87,0-1.53.16-2,.49-.47.33-.7.8-.7,1.43,0,.51.15.91.46,1.21.3.3.7.45,1.2.45.64,0,1.18-.24,1.62-.72Z" fill="#fff"/>
        <path d="M92.71,35.5l-2.68-4.51c-.09.01-.22.02-.39.02-.44,0-.77-.01-1-.03v4.52h-1.33v-10.35c.62-.09,1.34-.14,2.18-.14,1.32,0,2.35.24,3.1.73.75.49,1.12,1.24,1.12,2.25,0,.68-.21,1.25-.64,1.72-.43.47-1,.82-1.72,1.05l3,4.73h-1.64ZM91.55,29.81c.48-.44.72-1.04.72-1.81s-.21-1.41-.62-1.83c-.42-.42-1.09-.63-2.03-.63-.3,0-.63.02-.98.07v4.83c.16.02.38.03.68.03,1.01,0,1.76-.22,2.24-.66Z" fill="#fff"/>
        <path d="M96.25,34.67c-.68-.71-1.02-1.71-1.02-3,0-.8.17-1.51.52-2.13.35-.62.81-1.1,1.39-1.44.58-.34,1.2-.51,1.87-.51,1.15,0,2.06.35,2.74,1.06.68.71,1.02,1.7,1.02,2.99,0,.8-.17,1.51-.52,2.14-.35.62-.81,1.11-1.39,1.45-.58.34-1.2.51-1.87.51-1.15,0-2.06-.35-2.74-1.06ZM100.76,34.15c.42-.69.62-1.52.62-2.52s-.19-1.83-.58-2.5c-.39-.66-.99-1-1.8-1-.77,0-1.36.34-1.78,1.02-.42.68-.63,1.51-.63,2.49s.2,1.85.59,2.52c.39.67,1,1,1.81,1,.77,0,1.36-.34,1.77-1.03Z" fill="#fff"/>
        <path d="M115.55,28.47c.43.59.64,1.4.64,2.42v4.61h-1.28v-4.17c0-.9-.1-1.63-.3-2.19-.2-.56-.63-.84-1.31-.84s-1.23.29-1.63.88c-.4.59-.6,1.41-.6,2.46v3.85h-1.27v-4.17c0-.89-.11-1.61-.33-2.18-.22-.56-.68-.84-1.38-.84s-1.25.3-1.67.91c-.42.61-.62,1.44-.62,2.5v3.78h-1.28v-7.7h.84l.39,1.43c.27-.54.66-.95,1.16-1.23.5-.28,1.03-.42,1.58-.42.63,0,1.15.16,1.56.49.41.33.68.75.82,1.28.24-.57.6-1.01,1.11-1.32.5-.3,1.02-.46,1.54-.46.92,0,1.6.3,2.03.89Z" fill="#fff"/>
        <path d="M123.43,28.37c.49.52.73,1.33.73,2.42v4.71h-.83l-.37-1.33c-.25.53-.61.92-1.07,1.18-.47.26-1,.39-1.61.39-.73,0-1.36-.19-1.87-.58-.52-.39-.78-.96-.78-1.71,0-.85.33-1.5.98-1.94.65-.44,1.54-.66,2.67-.66.59,0,1.13.05,1.64.14v-.32c0-.78-.14-1.37-.42-1.78-.28-.41-.79-.62-1.52-.62-.87,0-1.67.3-2.41.91l-.34-.62c.37-.3.83-.54,1.37-.71.54-.17,1.07-.25,1.6-.25,1,0,1.75.26,2.24.78ZM122.26,34.26c.44-.48.66-1.17.66-2.08v-.66c-.53-.08-.94-.12-1.23-.12-.87,0-1.53.16-2,.49-.47.33-.7.8-.7,1.43,0,.51.15.91.46,1.21.3.3.7.45,1.2.45.64,0,1.18-.24,1.62-.72Z" fill="#fff"/>
        <path d="M132.28,28.48c.45.6.68,1.4.68,2.41v4.61h-1.3v-4.17c0-.89-.11-1.61-.34-2.18-.23-.56-.7-.84-1.42-.84s-1.29.3-1.71.9c-.42.6-.63,1.44-.63,2.51v3.78h-1.3v-7.7h.84l.39,1.43c.27-.55.65-.96,1.13-1.24.48-.28,1.01-.41,1.59-.41.93,0,1.63.3,2.08.89Z" fill="#fff"/>
        <path d="M140.2,28.37c.49.52.73,1.33.73,2.42v4.71h-.83l-.37-1.33c-.25.53-.61.92-1.07,1.18-.47.26-1,.39-1.61.39-.73,0-1.36-.19-1.87-.58-.52-.39-.78-.96-.78-1.71,0-.85.33-1.5.98-1.94.65-.44,1.54-.66,2.67-.66.59,0,1.13.05,1.64.14v-.32c0-.78-.14-1.37-.42-1.78-.28-.41-.79-.62-1.52-.62-.87,0-1.67.3-2.41.91l-.34-.62c.37-.3.83-.54,1.37-.71.54-.17,1.07-.25,1.6-.25,1,0,1.75.26,2.24.78ZM139.02,34.26c.44-.48.66-1.17.66-2.08v-.66c-.53-.08-.94-.12-1.23-.12-.87,0-1.53.16-2,.49-.47.33-.7.8-.7,1.43,0,.51.15.91.46,1.21.3.3.7.45,1.2.45.64,0,1.18-.24,1.62-.72Z" fill="#fff"/>
      </g>
    </g>
  </g>
</svg>